<svg xmlns="http://www.w3.org/2000/svg" xmlns:xlink="http://www.w3.org/1999/xlink" width="180" height="46" viewBox="0 0 180 46" role="img" aria-labelledby="title desc">
  <title id="title">LinkedIn</title>
  <desc id="desc">Design do perfil de João Victor Gobi Romero. Animações decorativas em SVG, com suporte a movimento reduzido.</desc>
  <defs></defs>
  <style>
    text { font-family: 'Segoe UI',Arial,'Liberation Sans',sans-serif; }
    .mono { font-family: 'Cascadia Code','SFMono-Regular',Consolas,'Liberation Mono',monospace; }
    
  </style>
  <rect x="0.7" y="0.7" width="178.6" height="44.6" rx="14" fill="#00D8B8" stroke="#23E9CE" /><svg x="14" y="12" width="22" height="22" viewBox="0 0 128 128" fill="black"><path fill="#0076b2" d="M116 3H12a8.91 8.91 0 00-9 8.8v104.42a8.91 8.91 0 009 8.78h104a8.93 8.93 0 009-8.81V11.77A8.93 8.93 0 00116 3z"/><path fill="#fff" d="M21.06 48.73h18.11V107H21.06zm9.06-29a10.5 10.5 0 11-10.5 10.49 10.5 10.5 0 0110.5-10.49M50.53 48.73h17.36v8h.24c2.42-4.58 8.32-9.41 17.13-9.41C103.6 47.28 107 59.35 107 75v32H88.89V78.65c0-6.75-.12-15.44-9.41-15.44s-10.87 7.36-10.87 15V107H50.53z"/></svg><text x="46" y="29" font-size="15" font-weight="600" fill="#08232B" >LinkedIn</text><path d="M158 28L166 20M159 20H166V27" stroke="#08232B" fill="none" stroke-width="1.5" stroke-linecap="round" stroke-linejoin="round"/>
</svg>
